HIERARCHY
ROOT Hips
{
	OFFSET 0.000000 0.000000 0.000000
	CHANNELS 6 Xposition Yposition Zposition Xrotation Yrotation Zrotation
	JOINT LeftUpLeg_virtual
	{
		OFFSET 0.000000 0.000000 0.000000
		CHANNELS 3 Xrotation Yrotation Zrotation
		JOINT LeftUpLeg
		{
			OFFSET 11.394100 -6.187798 -0.413800
			CHANNELS 3 Xrotation Yrotation Zrotation
			JOINT LeftLeg
			{
				OFFSET 0.430247 -32.302673 3.732800
				CHANNELS 3 Xrotation Yrotation Zrotation
				JOINT LeftFoot
				{
					OFFSET -0.430247 -48.264931 -6.423300
					CHANNELS 3 Xrotation Yrotation Zrotation
					JOINT LeftToeBase
					{
						OFFSET 4.230900 -16.068199 23.438400
						CHANNELS 3 Xrotation Yrotation Zrotation
						JOINT LeftToe_End
						{
							OFFSET 4.510700 0.695400 19.974600
							CHANNELS 3 Xrotation Yrotation Zrotation
							End Site
							{
								OFFSET 0 0 0
							}
						}
					}
				}
			}
		}
	}
	JOINT RightUpLeg_virtual
	{
		OFFSET 0.000000 0.000000 0.000000
		CHANNELS 3 Xrotation Yrotation Zrotation
		JOINT RightUpLeg
		{
			OFFSET -11.333700 -6.187798 -0.413800
			CHANNELS 3 Xrotation Yrotation Zrotation
			JOINT RightLeg
			{
				OFFSET -0.430392 -32.302628 3.733000
				CHANNELS 3 Xrotation Yrotation Zrotation
				JOINT RightFoot
				{
					OFFSET 0.430392 -48.264973 -6.423500
					CHANNELS 3 Xrotation Yrotation Zrotation
					JOINT RightToeBase
					{
						OFFSET -4.230900 -16.068199 23.438400
						CHANNELS 3 Xrotation Yrotation Zrotation
						JOINT RightToe_End
						{
							OFFSET -4.510700 0.695400 19.974600
							CHANNELS 3 Xrotation Yrotation Zrotation
							End Site
							{
								OFFSET 0 0 0
							}
						}
					}
				}
			}
		}
	}
	JOINT Spine_virtual
	{
		OFFSET 0.000000 0.000000 0.000000
		CHANNELS 3 Xrotation Yrotation Zrotation
		JOINT Spine
		{
			OFFSET -0.002400 12.777504 0.315300
			CHANNELS 3 Xrotation Yrotation Zrotation
			JOINT Spine1
			{
				OFFSET -0.002067 5.816869 0.032633
				CHANNELS 3 Xrotation Yrotation Zrotation
				JOINT Spine1_split
				{
					OFFSET -0.002067 5.816869 0.032633
					CHANNELS 3 Xrotation Yrotation Zrotation
					JOINT Spine2
					{
						OFFSET -0.002067 5.816869 0.032633
						CHANNELS 3 Xrotation Yrotation Zrotation
						JOINT Neck_virtual
						{
							OFFSET 0.000000 0.000000 0.000000
							CHANNELS 3 Xrotation Yrotation Zrotation
							JOINT Neck
							{
								OFFSET -0.003700 21.199493 -0.826900
								CHANNELS 3 Xrotation Yrotation Zrotation
								JOINT Head
								{
									OFFSET 0.000000 20.442200 4.834800
									CHANNELS 3 Xrotation Yrotation Zrotation
									JOINT HeadTop_End
									{
										OFFSET 0.000000 34.668396 4.968400
										CHANNELS 3 Xrotation Yrotation Zrotation
										End Site
										{
											OFFSET 0 0 0
										}
									}
								}
							}
						}
						JOINT LeftShoulder_virtual
						{
							OFFSET 0.000000 0.000000 0.000000
							CHANNELS 3 Xrotation Yrotation Zrotation
							JOINT LeftShoulder
							{
								OFFSET 3.288150 8.794197 -1.372250
								CHANNELS 3 Xrotation Yrotation Zrotation
								JOINT LeftShoulder_split
								{
									OFFSET 3.288150 8.794197 -1.372250
									CHANNELS 3 Xrotation Yrotation Zrotation
									JOINT LeftArm
									{
										OFFSET 11.953299 -2.279007 -0.146200
										CHANNELS 3 Xrotation Yrotation Zrotation
										JOINT LeftForeArm
										{
											OFFSET 18.448900 0.000000 0.000000
											CHANNELS 3 Xrotation Yrotation Zrotation
											JOINT LeftHand
											{
												OFFSET 29.527798 0.000000 0.000000
												CHANNELS 3 Xrotation Yrotation Zrotation
												End Site
												{
													OFFSET 0 0 0
												}
											}
										}
									}
								}
							}
						}
						JOINT RightShoulder_virtual
						{
							OFFSET 0.000000 0.000000 0.000000
							CHANNELS 3 Xrotation Yrotation Zrotation
							JOINT RightShoulder
							{
								OFFSET -3.249400 8.794197 -1.372250
								CHANNELS 3 Xrotation Yrotation Zrotation
								JOINT RightShoulder_split
								{
									OFFSET -3.249400 8.794197 -1.372250
									CHANNELS 3 Xrotation Yrotation Zrotation
									JOINT RightArm
									{
										OFFSET -11.953299 -2.279007 -0.146200
										CHANNELS 3 Xrotation Yrotation Zrotation
										JOINT RightForeArm
										{
											OFFSET -18.448900 0.000000 0.000000
											CHANNELS 3 Xrotation Yrotation Zrotation
											JOINT RightHand
											{
												OFFSET -29.527802 0.000000 0.000000
												CHANNELS 3 Xrotation Yrotation Zrotation
												End Site
												{
													OFFSET 0 0 0
												}
											}
										}
									}
								}
							}
						}
					}
				}
			}
		}
	}
}
MOTION
Frames: 4
Frame Time: 0.03333333
-0.424836 122.703644 3.235752 0.000000 0.000000 0.000000 9.309687 -39.686087 5.282142 -87.688161 -16.197112 21.507530 64.210649 0.379112 3.790768 20.468265 3.395047 0.258229 -1.725309 2.196787 -3.356422 0.000000 0.000000 0.000000 9.379937 -43.629189 4.947170 -134.416511 -30.837478 -12.704520 110.205833 17.538584 -13.037477 52.432036 9.420799 31.966006 9.655009 6.258006 -6.018364 0.000000 0.000000 0.000000 8.255616 -40.802259 3.861131 30.282060 -5.510130 -7.213610 11.379558 1.398530 -3.496807 0.608054 1.077260 1.185951 0.000000 0.000000 0.000000 11.533129 1.212306 -2.310898 -6.541959 18.043418 -14.366719 -26.028995 11.516962 3.706052 0.000000 0.000000 0.000000 12.940306 1.498282 -2.882442 11.724706 -10.014159 0.271444 -0.269738 -3.489746 -4.129283 -54.391860 5.650949 0.731777 47.973084 -18.534897 31.323657 0.000000 0.000000 0.000000 13.964954 1.538542 -2.596962 17.345634 22.162272 -5.625954 0.191163 4.779339 2.508424 -34.425574 -14.113029 3.291544 -50.204855 50.145914 40.569937 0.000000 0.000000 0.000000 
-0.450109 122.708824 3.264011 0.000000 0.000000 0.000000 9.362232 -39.455240 5.246759 -87.813235 -16.076119 21.561997 64.208655 0.445761 3.731364 20.567141 3.450451 0.283824 -1.746537 2.197961 -3.404840 0.000000 0.000000 0.000000 9.454548 -43.573475 4.912652 -134.477723 -30.811919 -12.554350 110.275173 17.565524 -13.172119 52.531651 9.538900 32.064142 9.517442 6.267237 -5.994401 0.000000 0.000000 0.000000 8.303051 -40.717264 3.778508 30.209162 -5.582683 -7.223045 11.432097 1.341883 -3.501405 0.579761 1.155377 1.034965 0.000000 0.000000 0.000000 11.566217 1.190099 -2.321939 -6.762689 18.121059 -14.261395 -26.044911 11.492170 3.810263 0.000000 0.000000 0.000000 12.973332 1.466748 -2.836077 11.896763 -10.352385 1.112060 -0.428549 -3.374237 -3.749113 -55.778986 4.898819 1.165081 47.946726 -18.720111 31.401313 0.000000 0.000000 0.000000 14.014775 1.465804 -2.601570 17.437995 21.852634 -6.054671 0.380203 4.924664 2.245468 -34.977658 -14.219963 2.969488 -50.400376 50.537956 40.736792 0.000000 0.000000 0.000000 
-0.441106 122.684113 3.269745 0.000000 0.000000 0.000000 9.380407 -39.026779 5.084255 -88.098744 -16.008746 21.559938 64.286731 0.457910 3.723516 20.814832 3.485034 0.390237 -1.742443 2.193572 -3.376673 0.000000 0.000000 0.000000 9.523735 -43.316517 4.755707 -134.594014 -30.792549 -12.303218 110.363836 17.574049 -13.352872 52.778518 9.707126 32.253198 9.257824 6.244168 -5.780098 0.000000 0.000000 0.000000 8.432597 -40.508223 3.664510 30.113399 -5.638399 -7.279114 11.464035 1.305202 -3.539494 0.466308 1.219337 0.999496 0.000000 0.000000 0.000000 11.642173 1.206543 -2.362413 -6.952915 18.105076 -14.066630 -26.200788 11.406203 3.982429 0.000000 0.000000 0.000000 13.013397 1.487790 -2.805244 12.175731 -10.838217 2.537685 -0.303815 -2.987212 -3.620881 -57.348570 3.416619 1.903280 47.917428 -18.931585 31.410852 0.000000 0.000000 0.000000 14.059720 1.422734 -2.645452 17.718242 21.424314 -6.978125 0.550699 4.951146 2.281522 -35.916833 -14.496923 2.174687 -51.518170 51.398809 41.951240 0.000000 0.000000 0.000000 
-0.412532 122.642303 3.290398 0.000000 0.000000 0.000000 9.366279 -38.496302 4.819905 -88.509628 -16.010337 21.500131 64.425684 0.410122 3.769076 21.172125 3.489542 0.554171 -1.747693 2.185713 -3.275664 0.000000 0.000000 0.000000 9.559844 -42.950371 4.499198 -134.762023 -30.788932 -12.002222 110.464759 17.527488 -13.544730 53.034827 9.813320 32.485056 9.080661 6.189305 -5.415543 0.000000 0.000000 0.000000 8.634600 -40.235193 3.531219 30.003484 -5.669378 -7.367428 11.487528 1.285981 -3.592175 0.348295 1.205774 1.024536 0.000000 0.000000 0.000000 11.770769 1.255058 -2.422504 -7.087348 18.019489 -13.826334 -26.442756 11.272533 4.177710 0.000000 0.000000 0.000000 13.064837 1.542915 -2.796487 12.543961 -11.440086 4.318184 -0.046914 -2.592434 -3.792205 -58.768484 1.470640 2.564475 47.807141 -18.932246 31.247528 0.000000 0.000000 0.000000 14.097572 1.414133 -2.715259 18.140431 20.974811 -8.241721 0.683160 4.878670 2.470791 -37.014110 -14.803163 1.138157 -53.221227 52.459951 43.853086 0.000000 0.000000 0.000000 
